<?xml version="1.0" encoding="UTF-8"?>
<svg width="124px" height="124px" viewBox="0 0 124 124" version="1.1" xmlns="http://www.w3.org/2000/svg" xmlns:xlink="http://www.w3.org/1999/xlink">
    <!-- Generator: Sketch 48.2 (47327) - http://www.bohemiancoding.com/sketch -->
    <title>Group 2</title>
    <desc>Created with Sketch.</desc>
    <defs></defs>
    <g id="Page-1" stroke="none" stroke-width="1" fill="none" fill-rule="evenodd">
        <g id="Group-2" fill="#C3D15C">
            <path d="M62,6.2 C31.2294,6.2 6.2,31.2294 6.2,62 C6.2,92.7706 31.2294,117.8 62,117.8 C92.7706,117.8 117.8,92.7706 117.8,62 C117.8,31.2294 92.7706,6.2 62,6.2 M62,124 C45.4398,124 29.8716,117.552 18.166,105.8402 C6.448,94.1284 0,78.5602 0,62 C0,45.4398 6.448,29.8716 18.166,18.1598 C29.8716,6.448 45.4398,0 62,0 C78.5602,0 94.1284,6.448 105.834,18.1598 C117.552,29.8716 124,45.4398 124,62 C124,78.5602 117.552,94.1284 105.834,105.8402 C94.1284,117.552 78.5602,124 62,124" id="Fill-1549"></path>
            <path d="M54.9534493,56.7113787 L44.0009883,88.4306478 L70.0465507,67.282392 L80.9990117,35.5631229 L54.9534493,56.7113787 Z M31,107 L49.6422218,52.9925249 L94,17 L75.3515517,71.0074751 L31,107 Z" id="Fill-1550"></path>
        </g>
    </g>
</svg>