<?xml version="1.0" encoding="UTF-8"?>
<svg width="19px" height="16px" viewBox="0 0 19 16" version="1.1" xmlns="http://www.w3.org/2000/svg" xmlns:xlink="http://www.w3.org/1999/xlink">
    <!-- Generator: Sketch 48.1 (47250) - http://www.bohemiancoding.com/sketch -->
    <title>Fill 2118</title>
    <desc>Created with Sketch.</desc>
    <defs></defs>
    <g id="Page-1" stroke="none" stroke-width="1" fill="none" fill-rule="evenodd">
        <path d="M14.3297464,4.15575 L15.5237464,2.36475 L17.3147464,4.75275 L14.3297464,4.15575 Z M13.8227464,5.07475 L17.5407464,5.81875 L10.8487464,13.25475 L13.8227464,5.07575 L13.8227464,5.07475 Z M5.1767464,5.07475 L8.1507464,13.25375 L1.4587464,5.81775 L5.1767464,5.07375 L5.1767464,5.07475 Z M4.6697464,4.15575 L1.6847464,4.75275 L3.4757464,2.36475 L4.6697464,4.15575 Z M5.5777464,3.71475 L4.3447464,1.86575 L8.0427464,1.24975 L5.5777464,3.71475 Z M10.9567464,1.24975 L14.6547464,1.86575 L13.4217464,3.71475 L10.9557464,1.24975 L10.9567464,1.24975 Z M6.7067464,3.99975 L9.4997464,1.20675 L12.2927464,3.99975 L6.7067464,3.99975 Z M12.7857464,4.99975 L9.4997464,14.03675 L6.2137464,4.99975 L12.7857464,4.99975 Z M15.8997464,1.19975 C15.8227464,1.09575 15.7087464,1.02775 15.5817464,1.00675 L9.5817464,0.00675 C9.5277464,-0.00225 9.4717464,-0.00225 9.4177464,0.00675 L3.4177464,1.00675 C3.2907464,1.02775 3.1767464,1.09575 3.0997464,1.19975 L0.0997463987,5.19975 C-0.0432536013,5.38975 -0.0312536013,5.65675 0.127746399,5.83375 L9.1277464,15.83375 C9.2227464,15.93875 9.3577464,15.99975 9.4997464,15.99975 C9.6417464,15.99975 9.7767464,15.93875 9.8717464,15.83375 L18.8717464,5.83375 C19.0317464,5.65575 19.0437464,5.38975 18.8997464,5.19975 L15.8997464,1.19975 Z" id="Fill-2118" fill="#BBDEFB"></path>
    </g>
</svg>