<svg width="175" height="173" viewBox="0 0 175 173" xmlns="http://www.w3.org/2000/svg"><title>Group</title><g fill="#ECF4F8" fill-rule="evenodd"><path d="M126 42.667A4.34 4.34 0 0 0 121.667 47 4.34 4.34 0 0 0 126 51.333 4.34 4.34 0 0 0 130.333 47 4.34 4.34 0 0 0 126 42.667M126 60c-7.167 0-13-5.833-13-13s5.833-13 13-13 13 5.833 13 13-5.833 13-13 13"/><path d="M126.375 25.45c-12.058 0-21.875 9.705-21.875 21.625 0 21.997 15.024 44.452 21.875 53.543 6.843-9.1 21.875-31.58 21.875-53.543 0-11.92-9.817-21.625-21.875-21.625m0 86.5a4.4 4.4 0 0 1-3.325-1.514c-.28-.32-6.912-8.01-13.597-19.592C100.36 75.118 95.75 60.387 95.75 47.066c0-16.694 13.737-30.275 30.625-30.275 16.887 0 30.625 13.58 30.625 30.275 0 13.321-4.611 28.044-13.702 43.778-6.694 11.574-13.327 19.272-13.598 19.592a4.4 4.4 0 0 1-3.325 1.514"/><path d="M161.875 164.35H87.5v-17.3h78.75v12.975c0 2.387-1.969 4.325-4.375 4.325zM8.75 160.025V147.05h17.5v17.3H13.125c-2.406 0-4.375-1.938-4.375-4.325zM13.125 8.65H26.25V121.1H8.75V12.975c0-2.387 1.969-4.325 4.375-4.325zm153.125 4.325V121.1H87.5V8.65h74.375c2.406 0 4.375 1.938 4.375 4.325zM87.5 138.4h78.75v-8.65H87.5v8.65zm-78.75 0h17.5v-8.65H8.75v8.65zm48.125 17.3c-2.406 0-4.375 1.938-4.375 4.325v4.325H35V8.65h17.5v4.325c0 2.387 1.969 4.325 4.375 4.325 2.406 0 4.375-1.938 4.375-4.325V8.65h17.5v155.7h-17.5v-4.325c0-2.387-1.969-4.325-4.375-4.325zm105-155.7H13.125C5.889 0 0 5.821 0 12.975v147.05C0 167.179 5.889 173 13.125 173h148.75c7.236 0 13.125-5.821 13.125-12.975V12.975C175 5.821 169.111 0 161.875 0z"/><path d="M56.5 42c2.475 0 4.5-1.904 4.5-4.25v-8.5c0-2.346-2.025-4.25-4.5-4.25S52 26.904 52 29.25v8.5c0 2.346 2.025 4.25 4.5 4.25M56.5 68c2.475 0 4.5-1.904 4.5-4.25v-8.5c0-2.346-2.025-4.25-4.5-4.25S52 52.904 52 55.25v8.5c0 2.346 2.025 4.25 4.5 4.25M56.5 94c2.475 0 4.5-1.904 4.5-4.25v-8.5c0-2.346-2.025-4.25-4.5-4.25S52 78.904 52 81.25v8.5c0 2.346 2.025 4.25 4.5 4.25M56.5 120c2.475 0 4.5-1.904 4.5-4.25v-8.5c0-2.346-2.025-4.25-4.5-4.25s-4.5 1.904-4.5 4.25v8.5c0 2.346 2.025 4.25 4.5 4.25M61 133.25c0-2.346-2.025-4.25-4.5-4.25s-4.5 1.904-4.5 4.25v8.5c0 2.346 2.025 4.25 4.5 4.25s4.5-1.904 4.5-4.25v-8.5z"/></g></svg>